{
  "asset": {
    "generator": "Ungine skeletal animation sample",
    "version": "2.0"
  },
  "scene": 0,
  "scenes": [
    {
      "name": "Animated Banner",
      "nodes": [
        0
      ]
    }
  ],
  "nodes": [
    {
      "name": "Banner Root",
      "children": [
        1,
        3
      ]
    },
    {
      "name": "Pole",
      "children": [
        2
      ]
    },
    {
      "name": "Banner Pivot",
      "translation": [
        0,
        0.45,
        0
      ]
    },
    {
      "mesh": 0,
      "skin": 0,
      "name": "Banner Mesh"
    }
  ],
  "skins": [
    {
      "skeleton": 1,
      "inverseBindMatrices": 5,
      "joints": [
        1,
        2
      ],
      "name": "Banner Rig"
    }
  ],
  "animations": [
    {
      "channels": [
        {
          "sampler": 0,
          "target": {
            "path": "rotation",
            "node": 2
          }
        }
      ],
      "samplers": [
        {
          "input": 6,
          "interpolation": "LINEAR",
          "output": 7
        }
      ],
      "name": "Wave"
    }
  ],
  "meshes": [
    {
      "name": "Banner",
      "primitives": [
        {
          "attributes": {
            "WEIGHTS_0": 4,
            "POSITION": 0,
            "JOINTS_0": 3,
            "NORMAL": 1
          },
          "material": 0,
          "indices": 2
        }
      ]
    }
  ],
  "materials": [
    {
      "name": "Warm orange",
      "pbrMetallicRoughness": {
        "roughnessFactor": 0.55,
        "baseColorFactor": [
          0.95,
          0.34,
          0.08,
          1.0
        ],
        "metallicFactor": 0.0
      }
    }
  ],
  "buffers": [
    {
      "byteLength": 564,
      "uri": "AnimatedBanner.bin"
    }
  ],
  "bufferViews": [
    {
      "byteLength": 96,
      "buffer": 0,
      "byteOffset": 0
    },
    {
      "byteLength": 96,
      "buffer": 0,
      "byteOffset": 96
    },
    {
      "byteLength": 24,
      "buffer": 0,
      "byteOffset": 192
    },
    {
      "byteLength": 32,
      "buffer": 0,
      "byteOffset": 216
    },
    {
      "byteLength": 128,
      "buffer": 0,
      "byteOffset": 248
    },
    {
      "byteLength": 128,
      "buffer": 0,
      "byteOffset": 376
    },
    {
      "byteLength": 12,
      "buffer": 0,
      "byteOffset": 504
    },
    {
      "byteLength": 48,
      "buffer": 0,
      "byteOffset": 516
    }
  ],
  "accessors": [
    {
      "max": [
        1.1,
        1.55,
        0
      ],
      "bufferView": 0,
      "type": "VEC3",
      "count": 8,
      "min": [
        -0.04,
        0,
        0
      ],
      "componentType": 5126
    },
    {
      "count": 8,
      "type": "VEC3",
      "componentType": 5126,
      "bufferView": 1
    },
    {
      "count": 12,
      "type": "SCALAR",
      "componentType": 5123,
      "bufferView": 2
    },
    {
      "count": 8,
      "type": "VEC4",
      "componentType": 5121,
      "bufferView": 3
    },
    {
      "count": 8,
      "type": "VEC4",
      "componentType": 5126,
      "bufferView": 4
    },
    {
      "count": 2,
      "type": "MAT4",
      "componentType": 5126,
      "bufferView": 5
    },
    {
      "max": [
        2
      ],
      "bufferView": 6,
      "type": "SCALAR",
      "count": 3,
      "min": [
        0
      ],
      "componentType": 5126
    },
    {
      "count": 3,
      "type": "VEC4",
      "componentType": 5126,
      "bufferView": 7
    }
  ]
}
